# xmcd CD database file
#
# Track frame offsets:
#	150
#	16929
#	28574
#	47927
#	64176
#	88572
#	113814
#	129413
#	151303
#	179464
#	212037
#	248679
#	269606
#
# Disc length: 3942 seconds
#
# Revision: 0
# Processed by: cddbd v1.5.1PL2 Copyright (c) Steve Scherf et al.
# Submitted via: CDex 1.51
#
DISCID=af0f640d
DTITLE=AWEK - Just pick up the pieces
DYEAR=2005
DGENRE=Blues
TTITLE0=Everything Ido is wrong
TTITLE1=Hot dog boogie
TTITLE2=I gave you money
TTITLE3=Road Band
TTITLE4=She don't live by my side
TTITLE5=What's gonna happened to me
TTITLE6=Tired to be lonesome
TTITLE7=The thing I used to do
TTITLE8=The girl I've found
TTITLE9=Someday after while
TTITLE10=Got mo mojo working
TTITLE11=Listen pretty baby
TTITLE12=Flamenco dancer
EXTD=YEAR: 2005
EXTT0=
EXTT1=
EXTT2=
EXTT3=
EXTT4=
EXTT5=
EXTT6=
EXTT7=
EXTT8=
EXTT9=
EXTT10=
EXTT11=
EXTT12=
PLAYORDER=
